<?xml version="1.0" encoding="utf-8"?>
<!-- Generator: Adobe Illustrator 24.3.0, SVG Export Plug-In . SVG Version: 6.00 Build 0)  -->
<svg version="1.1" id="Layer_1" xmlns="http://www.w3.org/2000/svg" xmlns:xlink="http://www.w3.org/1999/xlink" x="0px" y="0px"
	 viewBox="0 0 75 64" style="enable-background:new 0 0 75 64;" xml:space="preserve">
<style type="text/css">
	.st0{fill:#FFB600;}
	.st1{fill:#F7981D;}
	.st2{fill:#FF8500;}
	.st3{fill:#FF5050;}
	.st4{fill:#E52836;}
	.st5{fill:#CB2026;}
	.st6{fill:#FFFFFF;}
	.st7{fill:#DCE5E5;}
</style>
<g>
	<g>
		<g>
			<path class="st0" d="M69,32c0,10.4-8.4,18.9-18.9,18.9c-10.4,0-18.9-8.5-18.9-18.9l0,0c0-10.4,8.4-18.9,18.8-18.9
				C60.6,13.1,69,21.6,69,32L69,32z"/>
		</g>
	</g>
	<g>
		<g>
			<path class="st1" d="M50.1,13.1C60.5,13.1,69,21.6,69,32l0,0c0,10.4-8.4,18.9-18.9,18.9c-10.4,0-18.9-8.5-18.9-18.9"/>
		</g>
	</g>
	<g>
		<g>
			<path class="st2" d="M50.1,13.1C60.5,13.1,69,21.6,69,32l0,0c0,10.4-8.4,18.9-18.9,18.9"/>
		</g>
	</g>
	<g>
		<g>
			<path class="st3" d="M24.7,13.1C14.4,13.2,6,21.6,6,32s8.4,18.9,18.9,18.9c4.9,0,9.3-1.9,12.7-4.9l0,0l0,0c0.7-0.6,1.3-1.3,1.9-2
				h-3.9c-0.5-0.6-1-1.3-1.4-1.9h6.7c0.4-0.6,0.8-1.3,1.1-2h-8.9c-0.3-0.6-0.6-1.3-0.8-2h10.4c0.6-1.9,1-3.9,1-6
				c0-1.4-0.2-2.7-0.4-4H31.7c0.1-0.7,0.3-1.3,0.5-2h10.4c-0.2-0.7-0.5-1.4-0.8-2H33c0.3-0.7,0.7-1.3,1.1-2h6.7
				c-0.4-0.7-0.9-1.4-1.5-2h-3.7c0.6-0.7,1.2-1.3,1.9-1.9c-3.3-3.1-7.8-4.9-12.7-4.9C24.8,13.1,24.8,13.1,24.7,13.1z"/>
		</g>
	</g>
	<g>
		<g>
			<path class="st4" d="M6,32c0,10.4,8.4,18.9,18.9,18.9c4.9,0,9.3-1.9,12.7-4.9l0,0l0,0c0.7-0.6,1.3-1.3,1.9-2h-3.9
				c-0.5-0.6-1-1.3-1.4-1.9h6.7c0.4-0.6,0.8-1.3,1.1-2h-8.9c-0.3-0.6-0.6-1.3-0.8-2h10.4c0.6-1.9,1-3.9,1-6c0-1.4-0.2-2.7-0.4-4
				H31.7c0.1-0.7,0.3-1.3,0.5-2h10.4c-0.2-0.7-0.5-1.4-0.8-2H33c0.3-0.7,0.7-1.3,1.1-2h6.7c-0.4-0.7-0.9-1.4-1.5-2h-3.7
				c0.6-0.7,1.2-1.3,1.9-1.9c-3.3-3.1-7.8-4.9-12.7-4.9h-0.1"/>
		</g>
	</g>
	<g>
		<g>
			<path class="st5" d="M24.9,50.9c4.9,0,9.3-1.9,12.7-4.9l0,0l0,0c0.7-0.6,1.3-1.3,1.9-2h-3.9c-0.5-0.6-1-1.3-1.4-1.9h6.7
				c0.4-0.6,0.8-1.3,1.1-2h-8.9c-0.3-0.6-0.6-1.3-0.8-2h10.4c0.6-1.9,1-3.9,1-6c0-1.4-0.2-2.7-0.4-4H31.7c0.1-0.7,0.3-1.3,0.5-2
				h10.4c-0.2-0.7-0.5-1.4-0.8-2H33c0.3-0.7,0.7-1.3,1.1-2h6.7c-0.4-0.7-0.9-1.4-1.5-2h-3.7c0.6-0.7,1.2-1.3,1.9-1.9
				c-3.3-3.1-7.8-4.9-12.7-4.9h-0.1"/>
		</g>
	</g>
	<g>
		<g>
			<g>
				<path class="st6" d="M31.6,36.8l0.3-1.7c-0.1,0-0.3,0.1-0.5,0.1c-0.7,0-0.8-0.4-0.7-0.6l0.6-3.5h1.1l0.3-1.9h-1l0.2-1.2h-2
					c0,0-1.2,6.6-1.2,7.4c0,1.2,0.7,1.7,1.6,1.7C30.9,37.1,31.4,36.9,31.6,36.8z"/>
			</g>
		</g>
		<g>
			<g>
				<path class="st6" d="M32.3,33.6c0,2.8,1.9,3.5,3.5,3.5c1.5,0,2.1-0.3,2.1-0.3l0.4-1.9c0,0-1.1,0.5-2.1,0.5
					c-2.2,0-1.8-1.6-1.8-1.6h4.1c0,0,0.3-1.3,0.3-1.8c0-1.3-0.7-2.9-2.9-2.9C33.8,28.9,32.3,31.1,32.3,33.6z M35.8,30.7
					c1.1,0,0.9,1.3,0.9,1.4h-2.2C34.5,32,34.7,30.7,35.8,30.7z"/>
			</g>
		</g>
		<g>
			<g>
				<path class="st6" d="M48.5,36.8l0.4-2.2c0,0-1,0.5-1.7,0.5c-1.4,0-2-1.1-2-2.3c0-2.4,1.2-3.7,2.6-3.7c1,0,1.8,0.6,1.8,0.6
					l0.3-2.1c0,0-1.2-0.5-2.3-0.5c-2.3,0-4.6,2-4.6,5.8c0,2.5,1.2,4.2,3.6,4.2C47.4,37.1,48.5,36.8,48.5,36.8z"/>
			</g>
		</g>
		<g>
			<g>
				<path class="st6" d="M20.6,28.9c-1.4,0-2.4,0.4-2.4,0.4L17.9,31c0,0,0.9-0.4,2.2-0.4c0.7,0,1.3,0.1,1.3,0.7
					c0,0.4-0.1,0.5-0.1,0.5s-0.6,0-0.9,0c-1.7,0-3.6,0.7-3.6,3c0,1.8,1.2,2.2,1.9,2.2c1.4,0,2-0.9,2.1-0.9l-0.1,0.8h1.8l0.8-5.5
					C23.3,29,21.3,28.9,20.6,28.9z M21,33.4c0,0.3-0.2,1.9-1.4,1.9c-0.6,0-0.8-0.5-0.8-0.8c0-0.5,0.3-1.2,1.8-1.2
					C20.9,33.4,21,33.4,21,33.4z"/>
			</g>
		</g>
		<g>
			<g>
				<path class="st6" d="M25.2,37c0.5,0,3,0.1,3-2.6c0-2.5-2.4-2-2.4-3c0-0.5,0.4-0.7,1.1-0.7c0.3,0,1.4,0.1,1.4,0.1l0.3-1.8
					c0,0-0.7-0.2-1.9-0.2c-1.5,0-3,0.6-3,2.6c0,2.3,2.5,2.1,2.5,3c0,0.6-0.7,0.7-1.2,0.7c-0.9,0-1.8-0.3-1.8-0.3l-0.3,1.8
					C23,36.8,23.5,37,25.2,37z"/>
			</g>
		</g>
		<g>
			<g>
				<path class="st6" d="M65.1,27.3L64.7,30c0,0-0.8-1-1.9-1c-1.8,0-3.4,2.2-3.4,4.8c0,1.6,0.8,3.3,2.5,3.3c1.2,0,1.9-0.8,1.9-0.8
					L63.7,37h2l1.5-9.6L65.1,27.3z M64.2,32.6c0,1.1-0.5,2.5-1.6,2.5c-0.7,0-1.1-0.6-1.1-1.6c0-1.6,0.7-2.6,1.6-2.6
					C63.8,30.9,64.2,31.4,64.2,32.6z"/>
			</g>
		</g>
		<g>
			<g>
				<path class="st6" d="M9.7,36.9l1.2-7.2l0.2,7.2h1.4l2.6-7.2L14,36.9h2.1l1.6-9.6h-3.3l-2,5.9l-0.1-5.9H9.4l-1.6,9.6H9.7z"/>
			</g>
		</g>
		<g>
			<g>
				<path class="st6" d="M40.7,36.9c0.6-3.3,0.7-6,2.1-5.5c0.2-1.3,0.5-1.8,0.7-2.3c0,0-0.1,0-0.4,0c-0.9,0-1.6,1.2-1.6,1.2l0.2-1.1
					h-1.9L38.5,37h2.2V36.9z"/>
			</g>
		</g>
		<g>
			<g>
				<path class="st6" d="M53.1,28.9c-1.4,0-2.4,0.4-2.4,0.4L50.4,31c0,0,0.9-0.4,2.2-0.4c0.7,0,1.3,0.1,1.3,0.7
					c0,0.4-0.1,0.5-0.1,0.5s-0.6,0-0.9,0c-1.7,0-3.6,0.7-3.6,3c0,1.8,1.2,2.2,1.9,2.2c1.4,0,2-0.9,2.1-0.9l-0.1,0.8H55l0.8-5.5
					C55.9,29,53.8,28.9,53.1,28.9z M53.6,33.4c0,0.3-0.2,1.9-1.4,1.9c-0.6,0-0.8-0.5-0.8-0.8c0-0.5,0.3-1.2,1.8-1.2
					C53.5,33.4,53.5,33.4,53.6,33.4z"/>
			</g>
		</g>
		<g>
			<g>
				<path class="st6" d="M57.5,36.9c0.6-3.3,0.7-6,2.1-5.5c0.2-1.3,0.5-1.8,0.7-2.3c0,0-0.1,0-0.4,0c-0.9,0-1.6,1.2-1.6,1.2l0.2-1.1
					h-1.9L55.3,37h2.2V36.9z"/>
			</g>
		</g>
	</g>
	<g>
		<g>
			<g>
				<path class="st7" d="M28.5,35.4c0,1.2,0.7,1.7,1.6,1.7c0.7,0,1.3-0.2,1.5-0.3l0.3-1.7c-0.1,0-0.3,0.1-0.5,0.1
					c-0.7,0-0.8-0.4-0.7-0.6l0.6-3.5h1.1l0.3-1.9h-1l0.2-1.2"/>
			</g>
		</g>
		<g>
			<g>
				<path class="st7" d="M33.3,33.6c0,2.8,0.9,3.5,2.5,3.5c1.5,0,2.1-0.3,2.1-0.3l0.4-1.9c0,0-1.1,0.5-2.1,0.5
					c-2.2,0-1.8-1.6-1.8-1.6h4.1c0,0,0.3-1.3,0.3-1.8c0-1.3-0.7-2.9-2.9-2.9C33.8,28.9,33.3,31.1,33.3,33.6z M35.8,30.7
					c1.1,0,1.3,1.3,1.3,1.4h-2.6C34.5,32,34.7,30.7,35.8,30.7z"/>
			</g>
		</g>
		<g>
			<g>
				<path class="st7" d="M48.5,36.8l0.4-2.2c0,0-1,0.5-1.7,0.5c-1.4,0-2-1.1-2-2.3c0-2.4,1.2-3.7,2.6-3.7c1,0,1.8,0.6,1.8,0.6
					l0.3-2.1c0,0-1.2-0.5-2.3-0.5c-2.3,0-3.6,2-3.6,5.8c0,2.5,0.2,4.2,2.6,4.2C47.4,37.1,48.5,36.8,48.5,36.8z"/>
			</g>
		</g>
		<g>
			<g>
				<path class="st7" d="M17.9,31.1c0,0,0.9-0.4,2.2-0.4c0.7,0,1.3,0.1,1.3,0.7c0,0.4-0.1,0.5-0.1,0.5s-0.6,0-0.9,0
					c-1.7,0-3.6,0.7-3.6,3c0,1.8,1.2,2.2,1.9,2.2c1.4,0,2-0.9,2.1-0.9L20.7,37h1.8l0.8-5.5c0-2.3-2-2.4-2.8-2.4 M22,33.4
					c0,0.3-1.2,1.9-2.4,1.9c-0.6,0-0.8-0.5-0.8-0.8c0-0.5,0.3-1.2,1.8-1.2C20.9,33.4,22,33.4,22,33.4z"/>
			</g>
		</g>
		<g>
			<g>
				<path class="st7" d="M23,36.8c0,0,0.6,0.2,2.3,0.2c0.5,0,3,0.1,3-2.6c0-2.5-2.4-2-2.4-3c0-0.5,0.4-0.7,1.1-0.7
					c0.3,0,1.4,0.1,1.4,0.1l0.3-1.8c0,0-0.7-0.2-1.9-0.2c-1.5,0-2,0.6-2,2.6c0,2.3,1.5,2.1,1.5,3c0,0.6-0.7,0.7-1.2,0.7"/>
			</g>
		</g>
		<g>
			<g>
				<path class="st7" d="M64.7,30c0,0-0.8-1-1.9-1c-1.8,0-2.4,2.2-2.4,4.8c0,1.6-0.2,3.3,1.5,3.3c1.2,0,1.9-0.8,1.9-0.8L63.7,37h2
					l1.5-9.6 M64.6,32.6c0,1.1-0.9,2.5-2,2.5c-0.7,0-1.1-0.6-1.1-1.6c0-1.6,0.7-2.6,1.6-2.6C63.8,30.9,64.6,31.4,64.6,32.6z"/>
			</g>
		</g>
		<g>
			<g>
				<path class="st7" d="M9.7,36.9l1.2-7.2l0.2,7.2h1.4l2.6-7.2L14,36.9h2.1l1.6-9.6h-2.5l-2.8,5.9l-0.1-5.9h-1.1l-3.4,9.6H9.7z"/>
			</g>
		</g>
		<g>
			<g>
				<path class="st7" d="M38.6,36.9h2.1c0.6-3.3,0.7-6,2.1-5.5c0.2-1.3,0.5-1.8,0.7-2.3c0,0-0.1,0-0.4,0c-0.9,0-1.6,1.2-1.6,1.2
					l0.2-1.1"/>
			</g>
		</g>
		<g>
			<g>
				<path class="st7" d="M50.4,31.1c0,0,0.9-0.4,2.2-0.4c0.7,0,1.3,0.1,1.3,0.7c0,0.4-0.1,0.5-0.1,0.5s-0.6,0-0.9,0
					c-1.7,0-3.6,0.7-3.6,3c0,1.8,1.2,2.2,1.9,2.2c1.4,0,2-0.9,2.1-0.9L53.2,37H55l0.8-5.5c0-2.3-2-2.4-2.8-2.4 M54.5,33.4
					c0,0.3-1.2,1.9-2.4,1.9c-0.6,0-0.8-0.5-0.8-0.8c0-0.5,0.3-1.2,1.8-1.2C53.5,33.4,54.5,33.4,54.5,33.4z"/>
			</g>
		</g>
		<g>
			<g>
				<path class="st7" d="M55.4,36.9h2.1c0.6-3.3,0.7-6,2.1-5.5c0.2-1.3,0.5-1.8,0.7-2.3c0,0-0.1,0-0.4,0c-0.9,0-1.6,1.2-1.6,1.2
					l0.2-1.1"/>
			</g>
		</g>
	</g>
</g>
</svg>
