<?xml version="1.0" encoding="utf-8"?>
<!-- Generator: Adobe Illustrator 24.3.0, SVG Export Plug-In . SVG Version: 6.00 Build 0)  -->
<svg version="1.1" id="Layer_1" xmlns="http://www.w3.org/2000/svg" xmlns:xlink="http://www.w3.org/1999/xlink" x="0px" y="0px"
	 viewBox="0 0 75 50" style="enable-background:new 0 0 75 50;" xml:space="preserve">
<style type="text/css">
	.st0{fill:#FFFFFF;}
	.st1{fill:#F48120;}
	.st2{fill:#231F20;}
	.st3{fill:url(#XMLID_12_);}
	.st4{opacity:0.65;fill:url(#XMLID_13_);enable-background:new    ;}
</style>
<g>
	<path d="M16.4,32.5c-0.7-0.8-1.1-2-1.1-3.6v-8.2c0-1.5,0.4-2.6,1.1-3.3c0.7-0.8,1.8-1.1,3.2-1.1s2.4,0.4,3.2,1.1
		c0.7,0.8,1.1,1.9,1.1,3.3v8.2c0,1.5-0.4,2.7-1.1,3.6c-0.7,0.8-1.8,1.3-3.2,1.3S17.1,33.3,16.4,32.5z M20.2,30.2
		c0.1-0.3,0.2-0.6,0.2-1.1v-8.4c0-0.4,0-0.7-0.1-0.9c-0.1-0.2-0.3-0.3-0.6-0.3c-0.6,0-0.9,0.4-0.9,1.3v8.4c0,0.5,0.1,0.9,0.2,1.1
		c0.1,0.3,0.3,0.4,0.7,0.4C19.9,30.6,20.1,30.5,20.2,30.2z"/>
	<path d="M26.6,33.6V19.7h-2v-3.3h7.5v3.3h-2v13.9H26.6z"/>
	<path d="M33.1,33.6V16.4h3.4v6.1h1.6v-6.1h3.4v17.2h-3.4v-7.8h-1.6v7.8H33.1z"/>
	<path d="M43.1,33.6V16.4h6.9v3.3h-3.4v3.3h3.2v3.2h-3.2v3.9h3.6v3.3H43.1z"/>
	<path d="M51.3,16.4h5.3c0.8,0,1.5,0.2,1.9,0.6c0.5,0.4,0.8,0.9,0.9,1.6c0.2,0.7,0.2,1.6,0.2,2.6c0,1-0.1,1.7-0.4,2.3
		c-0.3,0.5-0.7,0.9-1.3,1.1c0.5,0.1,0.9,0.4,1.1,0.8c0.2,0.4,0.3,1,0.3,1.7l0,6.5h-3.4v-6.7c0-0.5-0.1-0.8-0.3-0.9
		c-0.2-0.1-0.5-0.2-1-0.2v7.8h-3.5V16.4z M55.6,22.8c0.5,0,0.7-0.5,0.7-1.6c0-0.5,0-0.8-0.1-1s-0.1-0.4-0.2-0.5s-0.3-0.1-0.5-0.1
		h-0.8v3.2H55.6z"/>
</g>
</svg>
