<?xml version="1.0" encoding="utf-8"?>
<!-- Generator: Adobe Illustrator 24.3.0, SVG Export Plug-In . SVG Version: 6.00 Build 0)  -->
<svg version="1.1" id="Capa_1" xmlns="http://www.w3.org/2000/svg" xmlns:xlink="http://www.w3.org/1999/xlink" x="0px" y="0px"
	 viewBox="0 0 75 51.7" style="enable-background:new 0 0 75 51.7;" xml:space="preserve">
<style type="text/css">
	.st0{fill:#306FC5;}
	.st1{fill:#FFFFFF;}
</style>
<path class="st0" d="M75,47.3c0,2.4-2,4.4-4.4,4.4H4.4c-2.4,0-4.4-2-4.4-4.4V4.4C0,2,2,0,4.4,0h66.1C73,0,75,2,75,4.4V47.3L75,47.3z
	"/>
<g>
	<polygon class="st1" points="10.9,20.7 13.2,20.7 12,17.8 	"/>
	<polygon class="st1" points="22.8,30.3 22.8,31.6 26.6,31.6 26.6,33 22.8,33 22.8,34.6 27,34.6 29,32.4 27.1,30.3 	"/>
	<polygon class="st1" points="52.3,17.8 51.1,20.7 53.4,20.7 	"/>
	<polygon class="st1" points="33.7,35.4 33.7,29.6 31.1,32.4 	"/>
	<path class="st1" d="M38.7,31.2c-0.1-0.6-0.5-0.9-1.1-0.9h-2.1v1.8h2.2C38.3,32.1,38.7,31.8,38.7,31.2z"/>
	<path class="st1" d="M45.9,31.9c0.2-0.1,0.3-0.4,0.3-0.7c0.1-0.4-0.1-0.6-0.3-0.7c-0.2-0.1-0.5-0.1-0.8-0.1h-2V32h2
		C45.4,32,45.7,32,45.9,31.9z"/>
	<path class="st1" d="M60.5,15.2v1.2l-0.6-1.2h-4.8v1.2l-0.6-1.2H48c-1.1,0-2,0.2-2.9,0.6v-0.6h-4.6v0.1v0.5
		c-0.5-0.4-1.1-0.6-1.9-0.6H22.2l-1.1,2.5L20,15.2h-3.7h-1.5v1.2l-0.5-1.2h-0.1H9.8l-2,4.8l-2.3,5.2l0,0.1h0h5.2h0.1l0-0.1l0.6-1.5
		h1.3l0.6,1.6h5.9v-0.1v-1.1l0.5,1.2h3l0.5-1.2v1.1v0.1h2.3h11.7h0.1v-2.6h0.2c0.2,0,0.2,0,0.2,0.3v2.2H45v-0.6
		c0.6,0.3,1.5,0.6,2.7,0.6h3.1l0.6-1.6h1.4l0.6,1.6h5.9v-1v-0.5l0.9,1.5h0.2h0.1h4.5v-10H60.5L60.5,15.2L60.5,15.2z M26,23.8h-1
		h-0.6v-0.6v-5l-0.1,0.2v0l-2.4,5.4h-0.1h-0.5h-0.9L18,18.2v5.6h-3.5l-0.7-1.5h-3.5l-0.7,1.5H7.8l3-7.1h2.5l2.9,6.8v-6.8h0.6h2.1
		l0,0.1h0l1.3,2.8l0.9,2.1l0-0.1l2-4.9H26L26,23.8L26,23.8L26,23.8z M33,18.2h-4v1.3h3.9v1.4h-3.9v1.4h4v1.5h-5.7v-7.2H33V18.2
		L33,18.2z M40.3,20.8C40.3,20.8,40.3,20.8,40.3,20.8c0,0,0.1,0.1,0.1,0.1c0.2,0.3,0.4,0.6,0.4,1.2c0,0,0,0,0,0c0,0,0,0,0,0
		c0,0,0,0,0,0c0,0.1,0,0.1,0,0.2v1.4h-1.5v-0.8c0-0.4,0-1-0.3-1.4c-0.1-0.1-0.2-0.2-0.3-0.2c-0.2-0.1-0.4-0.1-0.9-0.1h-1.8v2.5h-1.7
		v-7.1H38c0.9,0,1.5,0,2,0.3c0.5,0.3,0.8,0.8,0.8,1.6c0,1.1-0.7,1.7-1.2,1.9C39.6,20.4,40,20.5,40.3,20.8z M43.7,23.8H42v-7.1h1.7
		V23.8z M63.6,23.8h-2.2l-3.3-5.4v4.5l0,0v0.9h-1.7v0h-1.7L54,22.2h-3.6l-0.6,1.6h-1.9c-0.8,0-1.8-0.2-2.4-0.8
		c-0.6-0.6-0.9-1.4-0.9-2.7c0-1,0.2-2,0.9-2.9c0.5-0.6,1.4-0.8,2.5-0.8h1.6v1.5H48c-0.6,0-0.9,0.1-1.3,0.4c-0.3,0.3-0.5,0.9-0.5,1.6
		c0,0.8,0.1,1.3,0.5,1.7c0.3,0.3,0.7,0.4,1.2,0.4h0.7l2.3-5.6h1h1.5l2.9,6.8v-0.3v-2.3v-0.2v-4h2.5l3,5v-5h1.7L63.6,23.8L63.6,23.8
		L63.6,23.8L63.6,23.8z"/>
	<path class="st1" d="M38.8,19.6c0,0,0.1-0.1,0.1-0.1c0.1-0.1,0.2-0.4,0.1-0.8c0,0,0-0.1,0-0.1c0,0,0,0,0,0l0,0
		c-0.1-0.2-0.2-0.3-0.3-0.3c-0.2-0.1-0.5-0.1-0.8-0.1h-2v1.6h2c0.3,0,0.6,0,0.8-0.1C38.8,19.7,38.8,19.6,38.8,19.6L38.8,19.6
		C38.8,19.6,38.8,19.6,38.8,19.6z"/>
	<path class="st1" d="M69.6,33.9c0-0.7-0.2-1.4-0.5-1.9v-4.6h0v-0.3c0,0-4.3,0-4.9,0c-0.6,0-1.4,0.6-1.4,0.6v-0.6h-4.7
		c-0.7,0-1.6,0.2-2,0.6v-0.6h-8.4v0.3v0.3c-0.6-0.5-1.7-0.6-2.2-0.6H40v0.3v0.3c-0.5-0.5-1.7-0.6-2.3-0.6h-6.1l-1.4,1.5l-1.3-1.5
		h-0.4h-0.7h-8v0.3v0.8v9.2h9l1.5-1.5l1.3,1.5h0.1h5.2h0.2h0.1H37v-1v-1.3h0.5c0.7,0,1.6,0,2.3-0.3v2.5v0.2h4.6v-0.2v-2.4h0.2
		c0.3,0,0.3,0,0.3,0.3v2.1v0.2h13.9c0.9,0,1.8-0.2,2.3-0.6v0.4v0.2h4.4c0.9,0,1.8-0.1,2.4-0.5c0.9-0.6,1.5-1.6,1.6-2.7
		c0,0,0-0.1,0-0.1l0,0C69.6,34.1,69.6,34,69.6,33.9z M37.5,33.3h-2v0.3v0.6v0.6V36h-3.3l-1.9-2.2l0,0l-0.1-0.1L27.8,36h-6.5v-7.1
		h6.6l1.8,2l0.4,0.4l0.1-0.1l2.1-2.3h5.4c1,0,2.2,0.3,2.7,1.3c0.1,0.2,0.1,0.4,0.1,0.7C40.5,32.9,39,33.3,37.5,33.3z M47.7,33.2
		c0.2,0.3,0.3,0.7,0.3,1.3V36h-1.7v-0.9c0-0.4,0-1.1-0.3-1.4c-0.2-0.3-0.6-0.3-1.2-0.3h-1.8V36h-1.7v-7.2H45c0.8,0,1.5,0,2,0.3
		c0.5,0.3,0.9,0.8,0.9,1.6c0,1.1-0.7,1.7-1.2,1.9C47.3,32.8,47.6,33,47.7,33.2z M54.7,30.3h-4v1.3h3.9V33h-3.9v1.4h4V36H49v-7.2h5.7
		V30.3z M59,36h-3.3v-1.5H59c0.3,0,0.5,0,0.7-0.2c0.1-0.1,0.2-0.3,0.2-0.5c0-0.2-0.1-0.4-0.2-0.5c-0.1-0.1-0.3-0.2-0.6-0.2
		c-1.6-0.1-3.6,0-3.6-2.2c0-1,0.6-2.1,2.4-2.1h3.4v1.7h-3.2c-0.3,0-0.5,0-0.7,0.1c-0.2,0.1-0.2,0.3-0.2,0.5c0,0.3,0.2,0.4,0.4,0.5
		c0.2,0.1,0.4,0.1,0.6,0.1h0.9c0.9,0,1.5,0.2,1.9,0.6c0.3,0.3,0.5,0.8,0.5,1.5C61.7,35.3,60.7,36,59,36z M67.8,35.3
		c-0.4,0.4-1.1,0.7-2.1,0.7h-3.3v-1.5h3.3c0.3,0,0.5,0,0.7-0.2c0.1-0.1,0.2-0.3,0.2-0.5c0-0.2-0.1-0.4-0.2-0.5
		C66.2,33.1,66,33,65.7,33c-1.6-0.1-3.6,0-3.6-2.2c0-1,0.6-1.8,1.9-2.1c0.2,0,0.3,0,0.5,0H68v1.7h-2.2h-0.8h-0.1
		c-0.3,0-0.5,0-0.7,0.1c-0.1,0.1-0.2,0.3-0.2,0.5c0,0.3,0.1,0.4,0.4,0.5c0.2,0.1,0.4,0.1,0.6,0.1H65h0.8c0.4,0,0.8,0.1,1.1,0.2
		c0.3,0.1,1.2,0.5,1.4,1.6c0,0.1,0,0.2,0,0.4C68.4,34.3,68.2,34.9,67.8,35.3z"/>
</g>
</svg>
