<?xml version="1.0" encoding="utf-8"?>
<!-- Generator: Adobe Illustrator 24.3.0, SVG Export Plug-In . SVG Version: 6.00 Build 0)  -->
<svg version="1.1" id="Layer_1" xmlns="http://www.w3.org/2000/svg" xmlns:xlink="http://www.w3.org/1999/xlink" x="0px" y="0px"
	 viewBox="0 0 75 50" style="enable-background:new 0 0 75 50;" xml:space="preserve">
<style type="text/css">
	.st0{fill:#FFFFFF;}
	.st1{fill:#F48120;}
	.st2{fill:#231F20;}
	.st3{fill:url(#XMLID_2_);}
	.st4{opacity:0.65;fill:url(#XMLID_3_);enable-background:new    ;}
</style>
<g id="XMLID_432_">
</g>
<g>
	<polygon id="XMLID_428_" class="st0" points="2.7,2.9 72.3,2.9 72.3,47.1 2.8,47.1 	"/>
	<path id="XMLID_427_" class="st1" d="M72,27.5c0,0-19,13.4-53.8,19.4H72V27.5z"/>
	<path class="st2" d="M8.6,16.3H5.7v10.1h2.9c1.5,0,2.6-0.4,3.6-1.2c1.2-1,1.8-2.4,1.8-3.9C14.1,18.4,11.8,16.3,8.6,16.3z
		 M10.9,23.9c-0.6,0.6-1.4,0.8-2.7,0.8H7.7V18h0.5c1.3,0,2,0.2,2.7,0.8c0.7,0.6,1.1,1.5,1.1,2.5C12,22.3,11.6,23.3,10.9,23.9z"/>
	<rect id="XMLID_422_" x="15" y="16.3" class="st2" width="2" height="10.1"/>
	<path id="XMLID_421_" class="st2" d="M21.8,20.2c-1.2-0.4-1.5-0.7-1.5-1.3c0-0.6,0.6-1.1,1.5-1.1c0.6,0,1.1,0.2,1.6,0.8l1-1.3
		c-0.8-0.7-1.9-1.1-3-1.1c-1.8,0-3.2,1.3-3.2,2.9c0,1.4,0.6,2.1,2.5,2.8c0.8,0.3,1.2,0.5,1.4,0.6c0.4,0.3,0.6,0.6,0.6,1
		c0,0.8-0.6,1.4-1.5,1.4c-0.9,0-1.7-0.5-2.2-1.3l-1.3,1.2c0.9,1.3,2,1.9,3.5,1.9c2,0,3.5-1.4,3.5-3.3C24.7,21.8,24,21,21.8,20.2z"/>
	<path id="XMLID_420_" class="st2" d="M25.3,21.4c0,3,2.3,5.3,5.3,5.3c0.8,0,1.6-0.2,2.5-0.6v-2.3c-0.8,0.8-1.5,1.1-2.4,1.1
		c-2,0-3.4-1.4-3.4-3.5c0-2,1.5-3.5,3.3-3.5c0.9,0,1.7,0.3,2.5,1.1v-2.3c-0.9-0.4-1.6-0.6-2.4-0.6C27.7,16.1,25.3,18.4,25.3,21.4z"
		/>
	<polygon id="XMLID_419_" class="st2" points="48.8,23.1 46.1,16.3 44,16.3 48.2,26.7 49.3,26.7 53.7,16.3 51.5,16.3 	"/>
	<polygon id="XMLID_418_" class="st2" points="54.6,26.4 60.2,26.4 60.2,24.7 56.6,24.7 56.6,22 60.1,22 60.1,20.3 56.6,20.3 
		56.6,18 60.2,18 60.2,16.3 54.6,16.3 	"/>
	<path class="st2" d="M68,19.3c0-1.9-1.3-3-3.6-3h-2.9v10.1h2v-4.1h0.3l2.7,4.1h2.4l-3.2-4.3C67.2,21.9,68,20.9,68,19.3z M64,21
		h-0.6v-3.1h0.6c1.2,0,1.9,0.5,1.9,1.5C66,20.4,65.3,21,64,21z"/>
	
		<linearGradient id="XMLID_2_" gradientUnits="userSpaceOnUse" x1="41.9441" y1="605.7271" x2="38.2132" y2="599.8854" gradientTransform="matrix(1 0 0 1 0 -580)">
		<stop  offset="0" style="stop-color:#F89F20"/>
		<stop  offset="0.2502" style="stop-color:#F79A20"/>
		<stop  offset="0.5331" style="stop-color:#F68D20"/>
		<stop  offset="0.6196" style="stop-color:#F58720"/>
		<stop  offset="0.7232" style="stop-color:#F48120"/>
		<stop  offset="1" style="stop-color:#F37521"/>
	</linearGradient>
	<circle id="XMLID_415_" class="st3" cx="39.2" cy="21.4" r="5.4"/>
	
		<linearGradient id="XMLID_3_" gradientUnits="userSpaceOnUse" x1="41.3551" y1="605.6484" x2="35.9022" y2="594.9904" gradientTransform="matrix(1 0 0 1 0 -580)">
		<stop  offset="0" style="stop-color:#F58720"/>
		<stop  offset="0.3587" style="stop-color:#E16F27"/>
		<stop  offset="0.703" style="stop-color:#D4602C"/>
		<stop  offset="0.9816" style="stop-color:#D05B2E"/>
	</linearGradient>
	<circle id="XMLID_414_" class="st4" cx="39.2" cy="21.4" r="5.4"/>
</g>
</svg>
