<?xml version="1.0" encoding="utf-8"?>
<!-- Generator: Adobe Illustrator 24.3.0, SVG Export Plug-In . SVG Version: 6.00 Build 0)  -->
<svg version="1.1" id="Layer_1" xmlns="http://www.w3.org/2000/svg" xmlns:xlink="http://www.w3.org/1999/xlink" x="0px" y="0px"
	 viewBox="0 0 75 56" style="enable-background:new 0 0 75 56;" xml:space="preserve">
<style type="text/css">
	.st0{clip-path:url(#SVGID_2_);fill:url(#SVGID_3_);}
</style>
<g id="XMLID_1_">
	<g id="XMLID_2_">
		<g>
			<defs>
				<path id="SVGID_1_" d="M38.6,24.3c0,2.9,2.6,4.5,4.5,5.4c2,1,2.7,1.6,2.7,2.5c0,1.3-1.6,1.9-3.1,2c-2.6,0-4.1-0.7-5.3-1.3
					l-0.9,4.4c1.2,0.6,3.4,1,5.7,1.1c5.4,0,9-2.7,9-6.8c0-5.3-7.3-5.6-7.2-7.9c0-0.7,0.7-1.5,2.2-1.7c0.7-0.1,2.8-0.2,5.1,0.9
					l0.9-4.2c-1.2-0.5-2.8-0.9-4.8-0.9C42.2,17.7,38.6,20.4,38.6,24.3 M60.9,18c-1,0-1.8,0.6-2.2,1.5L50.9,38h5.4l1.1-3h6.6l0.6,3
					h4.8l-4.2-20H60.9 M61.6,23.4l1.6,7.5h-4.3L61.6,23.4 M32,18l-4.3,20h5.2l4.3-20H32 M24.4,18L19,31.6l-2.2-11.6
					c-0.3-1.3-1.3-2-2.4-2H5.6l-0.1,0.6c1.8,0.4,3.9,1,5.1,1.7c0.8,0.4,1,0.8,1.2,1.8L15.9,38h5.5l8.4-20H24.4"/>
			</defs>
			<clipPath id="SVGID_2_">
				<use xlink:href="#SVGID_1_"  style="overflow:visible;"/>
			</clipPath>
			
				<linearGradient id="SVGID_3_" gradientUnits="userSpaceOnUse" x1="-919.6014" y1="567.8261" x2="-919.473" y2="567.8261" gradientTransform="matrix(419.708 -154.5691 -154.5691 -419.708 473743.7188 96216.8438)">
				<stop  offset="0" style="stop-color:#222357"/>
				<stop  offset="1" style="stop-color:#254AA5"/>
			</linearGradient>
			<polyline class="st0" points="-1.2,20.1 61.8,-3.1 76.2,35.9 13.1,59.1 			"/>
		</g>
	</g>
</g>
</svg>
