<svg xmlns="http://www.w3.org/2000/svg" version="1.1" viewBox="0 0 180.8 18.6">
	<g>
		<g>
		<g>
			<path d="M94.9,0.2h2.2V12h6.6v2.1h-8.9V0.2H94.9z"/>
			<path d="M105.9,13.3c-0.7-0.7-1-1.7-1-3.1v-6h2.2v5.5c0,0.9,0.2,1.5,0.5,1.9c0.4,0.4,0.9,0.6,1.6,0.6s1.2-0.2,1.6-0.7      s0.6-1.1,0.6-1.8V4.2h2.2v10h-2.2v-1.1c-0.3,0.3-0.6,0.6-1.1,0.9c-0.5,0.3-1,0.4-1.6,0.4C107.5,14.3,106.6,14,105.9,13.3z"/>
			<path d="M116.2,4.2h2.2v1.1c0.3-0.3,0.6-0.6,1.1-0.9s1-0.4,1.6-0.4c1.2,0,2.2,0.3,2.8,1.1c0.7,0.7,1,1.7,1,3.1v6h-2.2V8.7      c0-0.9-0.2-1.5-0.5-1.9s-0.9-0.6-1.6-0.6s-1.3,0.2-1.7,0.7c-0.4,0.5-0.6,1.1-0.6,1.8v5.5h-2.2L116.2,4.2L116.2,4.2z"/>
			<path d="M129.3,13.7c-0.8-0.4-1.4-1.1-1.8-1.8c-0.4-0.8-0.7-1.6-0.7-2.6s0.2-1.8,0.7-2.6s1.1-1.4,1.8-1.8      c0.8-0.4,1.6-0.7,2.6-0.7c1.5,0,2.7,0.5,3.7,1.5L134,7.1c-0.6-0.6-1.2-0.9-2-0.9c-0.9,0-1.5,0.3-2.1,0.8      c-0.5,0.6-0.8,1.3-0.8,2.2s0.3,1.6,0.8,2.2c0.5,0.6,1.2,0.8,2.1,0.8c0.9,0,1.5-0.3,2.1-0.9c0.5-0.6,0.8-1.3,0.8-2.2h2.2      c0,1-0.2,1.8-0.7,2.6c-0.4,0.8-1.1,1.4-1.8,1.8c-0.8,0.4-1.6,0.7-2.6,0.7C130.9,14.3,130.1,14.1,129.3,13.7z"/>
			<path d="M138.6,0.2l2.2-0.2v5.4c0.3-0.4,0.7-0.7,1.2-0.9c0.5-0.2,1-0.3,1.6-0.3c1.2,0,2.1,0.4,2.8,1.1s1,1.7,1,3v6h-2.2V8.7      c0-0.8-0.2-1.4-0.5-1.9c-0.4-0.4-0.9-0.7-1.6-0.7c-0.7,0-1.3,0.2-1.7,0.7s-0.6,1.1-0.6,1.8v5.5h-2.2V0.2z"/>
			<path d="M153,14c-0.5-0.2-0.9-0.5-1.3-0.8v1h-2.2v-14l2.2-0.2v5.3c0.3-0.3,0.7-0.6,1.3-0.8c0.5-0.2,1.1-0.3,1.7-0.3      c1,0,1.8,0.2,2.6,0.6c0.7,0.4,1.3,1,1.7,1.8s0.6,1.7,0.6,2.7s-0.2,1.9-0.6,2.7c-0.4,0.8-1,1.4-1.7,1.8c-0.7,0.4-1.6,0.6-2.6,0.6      C154.1,14.3,153.5,14.2,153,14z M156.7,11.4c0.5-0.6,0.8-1.3,0.8-2.1s-0.3-1.6-0.8-2.1c-0.5-0.6-1.2-0.9-2.1-0.9      c-0.9,0-1.5,0.3-2.1,0.9s-0.8,1.3-0.8,2.1s0.3,1.6,0.8,2.1c0.5,0.6,1.2,0.9,2.1,0.9C155.4,12.2,156.1,11.9,156.7,11.4z"/>
			<path d="M174.6,8.3L172,4.2h2.6l1.3,2.1l1.3-2.1h2.6L177,8.3l3.7,5.9h-2.6l-2.4-3.9l-2.4,3.9h-2.6L174.6,8.3z"/>
			<g>
			<path d="M168,8.5L168,8.5L168,8.5L168,8.5L168,8.5z"/>
			<path d="M170.4,6.6c-0.4-0.8-1-1.4-1.8-1.8c-0.8-0.4-1.6-0.7-2.6-0.7s-1.8,0.2-2.6,0.7c-0.8,0.4-1.4,1.1-1.8,1.8       s-0.7,1.6-0.7,2.6s0.2,1.8,0.7,2.6c0.4,0.8,1,1.4,1.8,1.8c0.8,0.4,1.6,0.7,2.6,0.7s1.8-0.2,2.6-0.7c0.8-0.4,1.4-1.1,1.8-1.8       c0.4-0.8,0.7-1.6,0.7-2.6S170.9,7.4,170.4,6.6z M164,6.9c0,0,0-0.1,0.1-0.1c0,0,0-0.1,0.1-0.1l0.1-0.1c0,0,0,0,0.1,0       s0.2,0,0.3,0s0.1,0,0.2,0h0.1h0.1h0.1c0.1,0,0.2,0,0.2,0c0.1,0,0.2,0,0.3,0h0.1c0.1,0,0.1,0,0.2,0s0.1,0,0.2,0       c0.1,0,0.1,0,0.2,0h0.1c0.1,0,0.2,0,0.3,0s0.1,0,0.2,0c0.1,0,0.3,0,0.4,0c0.1,0,0.2,0,0.2,0h0.1h0.1c0.1,0,0.1,0,0.1,0.1       c0.1,0.1,0.1,0.2,0.2,0.3c0,0.1,0,0.1-0.1,0.1c0,0,0,0-0.1,0l0,0c-0.1,0-0.2,0-0.2,0c-0.1,0-0.2,0-0.2,0h-0.1       c-0.1,0-0.3,0-0.4,0c-0.2,0-0.3,0-0.4,0s-0.3,0-0.4,0c-0.1,0-0.2,0-0.3,0s-0.2,0-0.4,0c0,0,0,0-0.1,0c-0.2,0-0.3,0-0.4,0       c-0.1,0-0.3,0-0.4,0c-0.1,0-0.1,0-0.2,0C164.2,7.1,164.2,7,164,6.9C164,7,164,7,164,6.9z M168.8,8.9c0,0.1,0,0.2,0,0.2v0.1v0.1       c0,0.1,0,0.1,0,0.2c0,0.1,0,0.1,0,0.2c0,0.1,0,0.1,0,0.2c0,0.1,0,0.2,0,0.3s0,0.2,0,0.4c0,0.1,0,0.2,0,0.2c0,0.1,0,0.2-0.1,0.3       c0,0.1-0.1,0.2-0.1,0.2l-0.1,0.1c-0.1,0.1-0.1,0.1-0.2,0.1c-0.1,0-0.1,0-0.2,0c-0.1,0-0.1,0-0.2,0c-0.1,0-0.2,0-0.3,0h-0.1       c-0.1,0-0.2,0-0.3,0s-0.1,0-0.2,0c-0.1,0-0.1,0-0.2,0s-0.1,0-0.2,0c-0.1,0-0.2,0-0.3,0c-0.2,0-0.3,0-0.5,0c-0.1,0-0.1,0-0.2,0       l0,0c0,0,0,0-0.1,0s-0.1,0-0.2,0c-0.1,0-0.2,0-0.2,0c-0.1,0-0.3,0-0.4,0c-0.1,0-0.2,0-0.3,0s-0.2,0-0.3,0s-0.1,0-0.2-0.1       c-0.1,0-0.1,0-0.2,0c-0.1,0-0.2-0.1-0.2-0.1l-0.1-0.1c0-0.1,0-0.1-0.1-0.2c0-0.1,0-0.2,0-0.3c0,0,0,0,0-0.1l0,0       c0-0.1,0-0.2,0-0.3s0-0.2,0-0.3s0-0.1,0-0.2c0-0.1,0-0.3,0-0.4c0-0.1,0-0.2,0-0.2c0-0.1,0-0.1,0-0.2V8.9V8.8c0-0.1,0-0.1,0-0.2       c0-0.1,0-0.1,0-0.2c0-0.1,0-0.2,0.1-0.3c0-0.1,0.1-0.2,0.2-0.4l0.1-0.1c0-0.1,0.1-0.1,0.1-0.1l0.1-0.1h0.1h0.1h0.1h0.1h0.1h0.1       h0.1h0.1c0,0,0,0,0.1,0s0.2,0,0.3,0h0.1h0.1h0.1c0.1,0,0.1,0,0.2,0h0.1h0.1l0,0l0,0c0.1,0,0.2,0,0.2,0c0.1,0,0.1,0,0.2,0       c0.1,0,0.1,0,0.2,0h0.1h0.1c0,0,0,0,0.1,0s0.1,0,0.2,0c0.1,0,0.1,0,0.2,0c0.1,0,0.1,0,0.2,0h0.1c0.1,0,0.1,0,0.2,0       c0.1,0,0.2,0,0.3,0s0.1,0,0.2,0h0.1c0.1,0,0.2,0,0.2,0.1c0.1,0.1,0.2,0.1,0.2,0.2s0.1,0.1,0.1,0.2V8c0,0.1,0,0.2,0,0.2       c0,0.1,0,0.2,0,0.3C168.8,8.8,168.8,8.9,168.8,8.9z"/>
			</g>
		</g>
		<g>
			<path d="M0,5.4h1.9v0.9C2.2,6,2.6,5.8,3,5.6c0.4-0.2,0.9-0.3,1.4-0.3c0.8,0,1.6,0.2,2.2,0.5c0.6,0.4,1.1,0.9,1.5,1.5      C8.5,8,8.6,8.7,8.6,9.6s-0.2,1.7-0.5,2.3c-0.4,0.7-0.9,1.2-1.5,1.5C6,14,5.3,14.2,4.4,14.2c-0.5,0-1-0.1-1.4-0.3      s-0.8-0.4-1.1-0.7v5.2L0,18.6V5.4z M6.1,11.6c0.5-0.5,0.7-1.1,0.7-1.9c0-0.7-0.2-1.4-0.7-1.9c-0.4-0.4-1-0.6-1.8-0.6      C3.6,7.2,3,7.4,2.5,7.9C2.1,8.4,1.9,9,1.9,9.7s0.2,1.4,0.7,1.9s1.1,0.7,1.8,0.7C5.1,12.3,5.7,12.1,6.1,11.6z"/>
			<path d="M12.2,13.6c-0.7-0.4-1.2-0.9-1.6-1.6c-0.4-0.7-0.6-1.4-0.6-2.2s0.2-1.6,0.6-2.2C11,6.9,11.5,6.4,12.2,6      c0.7-0.4,1.4-0.6,2.3-0.6c0.8,0,1.6,0.2,2.3,0.6c0.7,0.4,1.2,0.9,1.6,1.6S19,9,19,9.8s-0.2,1.6-0.6,2.2      c-0.4,0.7-0.9,1.2-1.6,1.6c-0.7,0.4-1.4,0.6-2.3,0.6C13.6,14.2,12.9,14,12.2,13.6z M16.3,11.6c0.5-0.5,0.7-1.1,0.7-1.9      s-0.2-1.4-0.7-1.9s-1.1-0.7-1.8-0.7s-1.3,0.2-1.8,0.7C12.2,8.4,12,9,12,9.7s0.2,1.4,0.7,1.9s1.1,0.7,1.8,0.7      C15.2,12.3,15.8,12.1,16.3,11.6z"/>
			<path d="M19.3,5.4h1.9l2.3,6.2l0.7-2.2l-1.5-4h1.9l0.6,1.8l0.6-1.8h1.9l-1.5,4l0.7,2.2l2.3-6.2h1.9L27.7,14H26l-0.8-2.3L24.4,14      h-1.7L19.3,5.4z"/>
			<path d="M33.8,13.6c-0.7-0.4-1.2-0.9-1.6-1.6c-0.4-0.7-0.6-1.4-0.6-2.2s0.2-1.5,0.6-2.2c0.4-0.7,0.9-1.2,1.6-1.6      c0.7-0.4,1.4-0.6,2.2-0.6s1.5,0.2,2.2,0.6s1.2,0.9,1.6,1.6c0.4,0.7,0.6,1.4,0.6,2.2c0,0.2,0,0.4-0.1,0.7h-6.7      c0.1,0.6,0.4,1,0.8,1.4c0.5,0.4,1,0.6,1.6,0.6c0.4,0,0.8-0.1,1.2-0.2c0.3-0.1,0.6-0.3,0.8-0.6h2.3c-0.3,0.8-0.8,1.4-1.6,1.9      s-1.6,0.7-2.6,0.7C35.2,14.2,34.5,14,33.8,13.6z M38.3,8.8c-0.1-0.5-0.4-0.9-0.8-1.2c-0.5-0.4-1-0.5-1.5-0.5      c-0.6,0-1.1,0.2-1.5,0.5s-0.7,0.7-0.8,1.2H38.3z"/>
			<path d="M42.1,5.4H44v1.1c0.2-0.4,0.4-0.7,0.8-0.9c0.3-0.2,0.8-0.3,1.3-0.3c0.3,0,0.6,0,0.8,0.1v2c-0.2-0.1-0.5-0.1-0.8-0.1      c-0.6,0-1.1,0.2-1.4,0.6C44.2,8.2,44,8.8,44,9.4V14h-1.9V5.4z"/>
			<path d="M49.6,13.6c-0.7-0.4-1.2-0.9-1.6-1.6c-0.4-0.7-0.6-1.4-0.6-2.2s0.2-1.5,0.6-2.2c0.4-0.7,0.9-1.2,1.6-1.6      c0.7-0.4,1.4-0.6,2.2-0.6S53.3,5.6,54,6s1.2,0.9,1.6,1.6C56,8.3,56.2,9,56.2,9.8c0,0.2,0,0.4-0.1,0.7h-6.7      c0.1,0.6,0.4,1,0.8,1.4c0.5,0.4,1,0.6,1.6,0.6c0.4,0,0.8-0.1,1.2-0.2c0.3-0.1,0.6-0.3,0.8-0.6h2.3c-0.3,0.8-0.8,1.4-1.6,1.9      s-1.6,0.7-2.6,0.7C51,14.2,50.3,14,49.6,13.6z M54.1,8.8c-0.1-0.5-0.4-0.9-0.8-1.2c-0.4-0.3-0.9-0.5-1.5-0.5s-1.1,0.2-1.5,0.5      s-0.7,0.7-0.8,1.2H54.1z"/>
			<path d="M59.6,13.6c-0.6-0.4-1.1-0.9-1.5-1.5c-0.4-0.7-0.5-1.4-0.5-2.3c0-0.9,0.2-1.7,0.5-2.3C58.5,6.8,59,6.3,59.6,6      c0.6-0.4,1.4-0.5,2.2-0.5c0.5,0,1,0.1,1.4,0.3C63.6,6,64,6.2,64.3,6.5V2l1.9-0.2v12.3h-1.9v-0.9c-0.3,0.3-0.7,0.5-1.1,0.7      c-0.4,0.2-0.9,0.3-1.4,0.3C61,14.2,60.2,14,59.6,13.6z M63.7,11.6c0.5-0.5,0.7-1.1,0.7-1.9c0-0.7-0.2-1.4-0.7-1.9      c-0.5-0.5-1.1-0.7-1.8-0.7s-1.3,0.2-1.8,0.7s-0.7,1.1-0.7,1.9c0,0.7,0.2,1.4,0.7,1.9s1.1,0.7,1.8,0.7      C62.7,12.3,63.3,12.1,63.7,11.6z"/>
			<path d="M75.5,13.9c-0.4-0.2-0.8-0.4-1.1-0.7v0.9h-1.9V2l1.9-0.2v4.5c0.2-0.3,0.6-0.5,1-0.7c0.4-0.2,0.9-0.3,1.4-0.3      c0.8,0,1.6,0.2,2.2,0.5c0.6,0.4,1.1,0.9,1.5,1.5C80.9,8,81,8.7,81,9.6s-0.2,1.7-0.5,2.3c-0.4,0.7-0.9,1.2-1.5,1.5      c-0.6,0.4-1.4,0.5-2.2,0.5C76.4,14.2,75.9,14.1,75.5,13.9z M78.6,11.6c0.5-0.5,0.7-1.1,0.7-1.9c0-0.7-0.2-1.4-0.7-1.9      s-1.1-0.7-1.8-0.7c-0.7,0-1.3,0.2-1.8,0.7s-0.7,1.1-0.7,1.9c0,0.7,0.2,1.4,0.7,1.9s1.1,0.7,1.8,0.7S78.1,12.1,78.6,11.6z"/>
			<path d="M84.8,12.5l-3.2-7.1h2l2.1,5l2.1-5h2l-3.2,7.1v5.8l-1.9,0.2L84.8,12.5L84.8,12.5z"/>
		</g>
		</g>
	</g>
</svg>