<svg width="337" height="45" viewBox="0 0 337 45" fill="none" xmlns="http://www.w3.org/2000/svg">
<rect width="337" height="45" rx="5" fill="#3479EA"/>
<path d="M74 22.5518C74 17.8283 70.1949 14 65.5 14C60.8051 14 57 17.8283 57 22.5518C57 26.821 60.1078 30.3586 64.1719 31V25.0238H62.0137V22.5518H64.1719V20.6677C64.1719 18.5248 65.4402 17.3405 67.3826 17.3405C68.3123 17.3405 69.2852 17.5076 69.2852 17.5076V19.6121H68.2127C67.1568 19.6121 66.8281 20.2719 66.8281 20.9483V22.5518H69.1855L68.8087 25.0238H66.8281V31C70.8922 30.3586 74 26.821 74 22.5518Z" fill="white"/>
<path d="M91.7344 24.2969C91.6198 25.5104 91.1719 26.4583 90.3906 27.1406C89.6094 27.8177 88.5703 28.1562 87.2734 28.1562C86.3672 28.1562 85.5677 27.9427 84.875 27.5156C84.1875 27.0833 83.6562 26.4714 83.2812 25.6797C82.9062 24.888 82.7109 23.9688 82.6953 22.9219V21.8594C82.6953 20.7865 82.8854 19.8411 83.2656 19.0234C83.6458 18.2057 84.1901 17.5755 84.8984 17.1328C85.612 16.6901 86.4349 16.4688 87.3672 16.4688C88.6224 16.4688 89.6328 16.8099 90.3984 17.4922C91.1641 18.1745 91.6094 19.138 91.7344 20.3828H89.7656C89.6719 19.5651 89.4323 18.9766 89.0469 18.6172C88.6667 18.2526 88.1068 18.0703 87.3672 18.0703C86.5078 18.0703 85.8464 18.3854 85.3828 19.0156C84.9245 19.6406 84.6901 20.5599 84.6797 21.7734V22.7812C84.6797 24.0104 84.8984 24.9479 85.3359 25.5938C85.7786 26.2396 86.4245 26.5625 87.2734 26.5625C88.0495 26.5625 88.6328 26.388 89.0234 26.0391C89.4141 25.6901 89.6615 25.1094 89.7656 24.2969H91.7344Z" fill="white"/>
<path d="M92.9688 23.6953C92.9688 22.8672 93.1328 22.1224 93.4609 21.4609C93.7891 20.7943 94.25 20.2839 94.8438 19.9297C95.4375 19.5703 96.1198 19.3906 96.8906 19.3906C98.0312 19.3906 98.9557 19.7578 99.6641 20.4922C100.378 21.2266 100.763 22.2005 100.82 23.4141L100.828 23.8594C100.828 24.6927 100.667 25.4375 100.344 26.0938C100.026 26.75 99.5677 27.2578 98.9688 27.6172C98.375 27.9766 97.6875 28.1562 96.9062 28.1562C95.7135 28.1562 94.7578 27.7604 94.0391 26.9688C93.3255 26.1719 92.9688 25.112 92.9688 23.7891V23.6953ZM94.8672 23.8594C94.8672 24.7292 95.0469 25.4115 95.4062 25.9062C95.7656 26.3958 96.2656 26.6406 96.9062 26.6406C97.5469 26.6406 98.0443 26.3906 98.3984 25.8906C98.7578 25.3906 98.9375 24.6589 98.9375 23.6953C98.9375 22.8411 98.7526 22.1641 98.3828 21.6641C98.0182 21.1641 97.5208 20.9141 96.8906 20.9141C96.2708 20.9141 95.7786 21.1615 95.4141 21.6562C95.0495 22.1458 94.8672 22.8802 94.8672 23.8594Z" fill="white"/>
<path d="M104.195 19.5469L104.25 20.5234C104.875 19.7682 105.695 19.3906 106.711 19.3906C108.471 19.3906 109.367 20.3984 109.398 22.4141V28H107.5V22.5234C107.5 21.987 107.383 21.5911 107.148 21.3359C106.919 21.0755 106.542 20.9453 106.016 20.9453C105.25 20.9453 104.68 21.2917 104.305 21.9844V28H102.406V19.5469H104.195Z" fill="white"/>
<path d="M113.719 17.4922V19.5469H115.211V20.9531H113.719V25.6719C113.719 25.9948 113.781 26.2292 113.906 26.375C114.036 26.5156 114.266 26.5859 114.594 26.5859C114.812 26.5859 115.034 26.5599 115.258 26.5078V27.9766C114.826 28.0964 114.409 28.1562 114.008 28.1562C112.549 28.1562 111.82 27.3516 111.82 25.7422V20.9531H110.43V19.5469H111.82V17.4922H113.719Z" fill="white"/>
<path d="M118.688 28H116.789V19.5469H118.688V28ZM116.672 17.3516C116.672 17.0599 116.763 16.8177 116.945 16.625C117.133 16.4323 117.398 16.3359 117.742 16.3359C118.086 16.3359 118.352 16.4323 118.539 16.625C118.727 16.8177 118.82 17.0599 118.82 17.3516C118.82 17.638 118.727 17.8776 118.539 18.0703C118.352 18.2578 118.086 18.3516 117.742 18.3516C117.398 18.3516 117.133 18.2578 116.945 18.0703C116.763 17.8776 116.672 17.638 116.672 17.3516Z" fill="white"/>
<path d="M122.523 19.5469L122.578 20.5234C123.203 19.7682 124.023 19.3906 125.039 19.3906C126.799 19.3906 127.695 20.3984 127.727 22.4141V28H125.828V22.5234C125.828 21.987 125.711 21.5911 125.477 21.3359C125.247 21.0755 124.87 20.9453 124.344 20.9453C123.578 20.9453 123.008 21.2917 122.633 21.9844V28H120.734V19.5469H122.523Z" fill="white"/>
<path d="M134.789 27.1719C134.232 27.8281 133.44 28.1562 132.414 28.1562C131.497 28.1562 130.802 27.888 130.328 27.3516C129.859 26.8151 129.625 26.0391 129.625 25.0234V19.5469H131.523V25C131.523 26.0729 131.969 26.6094 132.859 26.6094C133.781 26.6094 134.404 26.2786 134.727 25.6172V19.5469H136.625V28H134.836L134.789 27.1719Z" fill="white"/>
<path d="M142.281 28.1562C141.078 28.1562 140.102 27.7786 139.352 27.0234C138.607 26.263 138.234 25.2526 138.234 23.9922V23.7578C138.234 22.9141 138.396 22.1615 138.719 21.5C139.047 20.8333 139.505 20.3151 140.094 19.9453C140.682 19.5755 141.339 19.3906 142.062 19.3906C143.214 19.3906 144.102 19.7578 144.727 20.4922C145.357 21.2266 145.672 22.2656 145.672 23.6094V24.375H140.148C140.206 25.0729 140.438 25.625 140.844 26.0312C141.255 26.4375 141.771 26.6406 142.391 26.6406C143.26 26.6406 143.969 26.2891 144.516 25.5859L145.539 26.5625C145.201 27.0677 144.747 27.4609 144.18 27.7422C143.617 28.0182 142.984 28.1562 142.281 28.1562ZM142.055 20.9141C141.534 20.9141 141.112 21.0964 140.789 21.4609C140.471 21.8255 140.268 22.3333 140.18 22.9844H143.797V22.8438C143.755 22.2083 143.586 21.7292 143.289 21.4062C142.992 21.0781 142.581 20.9141 142.055 20.9141Z" fill="white"/>
<path d="M158.562 25.3828L159.906 19.5469H161.758L159.453 28H157.891L156.078 22.1953L154.297 28H152.734L150.422 19.5469H152.273L153.641 25.3203L155.375 19.5469H156.805L158.562 25.3828Z" fill="white"/>
<path d="M165.047 28H163.148V19.5469H165.047V28ZM163.031 17.3516C163.031 17.0599 163.122 16.8177 163.305 16.625C163.492 16.4323 163.758 16.3359 164.102 16.3359C164.445 16.3359 164.711 16.4323 164.898 16.625C165.086 16.8177 165.18 17.0599 165.18 17.3516C165.18 17.638 165.086 17.8776 164.898 18.0703C164.711 18.2578 164.445 18.3516 164.102 18.3516C163.758 18.3516 163.492 18.2578 163.305 18.0703C163.122 17.8776 163.031 17.638 163.031 17.3516Z" fill="white"/>
<path d="M169.5 17.4922V19.5469H170.992V20.9531H169.5V25.6719C169.5 25.9948 169.562 26.2292 169.688 26.375C169.818 26.5156 170.047 26.5859 170.375 26.5859C170.594 26.5859 170.815 26.5599 171.039 26.5078V27.9766C170.607 28.0964 170.19 28.1562 169.789 28.1562C168.331 28.1562 167.602 27.3516 167.602 25.7422V20.9531H166.211V19.5469H167.602V17.4922H169.5Z" fill="white"/>
<path d="M174.32 20.4688C174.94 19.75 175.724 19.3906 176.672 19.3906C178.474 19.3906 179.388 20.4193 179.414 22.4766V28H177.516V22.5469C177.516 21.9635 177.388 21.5521 177.133 21.3125C176.883 21.0677 176.513 20.9453 176.023 20.9453C175.263 20.9453 174.695 21.2839 174.32 21.9609V28H172.422V16H174.32V20.4688Z" fill="white"/>
<path d="M192.062 23.1797H187.484V28H185.508V16.625H192.734V18.2188H187.484V21.6016H192.062V23.1797Z" fill="white"/>
<path d="M198.906 28C198.823 27.8385 198.75 27.5755 198.688 27.2109C198.083 27.8411 197.344 28.1562 196.469 28.1562C195.62 28.1562 194.927 27.9141 194.391 27.4297C193.854 26.9453 193.586 26.3464 193.586 25.6328C193.586 24.7318 193.919 24.0417 194.586 23.5625C195.258 23.0781 196.216 22.8359 197.461 22.8359H198.625V22.2812C198.625 21.8438 198.503 21.4948 198.258 21.2344C198.013 20.9688 197.641 20.8359 197.141 20.8359C196.708 20.8359 196.354 20.9453 196.078 21.1641C195.802 21.3776 195.664 21.651 195.664 21.9844H193.766C193.766 21.5208 193.919 21.0885 194.227 20.6875C194.534 20.2812 194.951 19.9635 195.477 19.7344C196.008 19.5052 196.599 19.3906 197.25 19.3906C198.24 19.3906 199.029 19.6406 199.617 20.1406C200.206 20.6354 200.508 21.3333 200.523 22.2344V26.0469C200.523 26.8073 200.63 27.4141 200.844 27.8672V28H198.906ZM196.82 26.6328C197.195 26.6328 197.547 26.5417 197.875 26.3594C198.208 26.1771 198.458 25.9323 198.625 25.625V24.0312H197.602C196.898 24.0312 196.37 24.1536 196.016 24.3984C195.661 24.6432 195.484 24.9896 195.484 25.4375C195.484 25.8021 195.604 26.0938 195.844 26.3125C196.089 26.526 196.414 26.6328 196.82 26.6328Z" fill="white"/>
<path d="M205.984 26.6406C206.458 26.6406 206.852 26.5026 207.164 26.2266C207.477 25.9505 207.643 25.6094 207.664 25.2031H209.453C209.432 25.7292 209.268 26.2214 208.961 26.6797C208.654 27.1328 208.237 27.4922 207.711 27.7578C207.185 28.0234 206.617 28.1562 206.008 28.1562C204.826 28.1562 203.888 27.7734 203.195 27.0078C202.503 26.2422 202.156 25.1849 202.156 23.8359V23.6406C202.156 22.3542 202.5 21.3255 203.188 20.5547C203.875 19.7786 204.812 19.3906 206 19.3906C207.005 19.3906 207.823 19.6849 208.453 20.2734C209.089 20.8568 209.422 21.625 209.453 22.5781H207.664C207.643 22.0938 207.477 21.6953 207.164 21.3828C206.857 21.0703 206.464 20.9141 205.984 20.9141C205.37 20.9141 204.896 21.138 204.562 21.5859C204.229 22.0286 204.06 22.7031 204.055 23.6094V23.9141C204.055 24.8307 204.219 25.5156 204.547 25.9688C204.88 26.4167 205.359 26.6406 205.984 26.6406Z" fill="white"/>
<path d="M214.609 28.1562C213.406 28.1562 212.43 27.7786 211.68 27.0234C210.935 26.263 210.562 25.2526 210.562 23.9922V23.7578C210.562 22.9141 210.724 22.1615 211.047 21.5C211.375 20.8333 211.833 20.3151 212.422 19.9453C213.01 19.5755 213.667 19.3906 214.391 19.3906C215.542 19.3906 216.43 19.7578 217.055 20.4922C217.685 21.2266 218 22.2656 218 23.6094V24.375H212.477C212.534 25.0729 212.766 25.625 213.172 26.0312C213.583 26.4375 214.099 26.6406 214.719 26.6406C215.589 26.6406 216.297 26.2891 216.844 25.5859L217.867 26.5625C217.529 27.0677 217.076 27.4609 216.508 27.7422C215.945 28.0182 215.312 28.1562 214.609 28.1562ZM214.383 20.9141C213.862 20.9141 213.44 21.0964 213.117 21.4609C212.799 21.8255 212.596 22.3333 212.508 22.9844H216.125V22.8438C216.083 22.2083 215.914 21.7292 215.617 21.4062C215.32 21.0781 214.909 20.9141 214.383 20.9141Z" fill="white"/>
<path d="M226.898 23.8594C226.898 25.1719 226.604 26.2161 226.016 26.9922C225.432 27.7682 224.628 28.1562 223.602 28.1562C222.612 28.1562 221.841 27.7995 221.289 27.0859L221.195 28H219.477V16H221.375V20.3594C221.922 19.7135 222.659 19.3906 223.586 19.3906C224.617 19.3906 225.427 19.7734 226.016 20.5391C226.604 21.3047 226.898 22.375 226.898 23.75V23.8594ZM225 23.6953C225 22.7786 224.839 22.0911 224.516 21.6328C224.193 21.1745 223.724 20.9453 223.109 20.9453C222.286 20.9453 221.708 21.3047 221.375 22.0234V25.5078C221.714 26.2422 222.297 26.6094 223.125 26.6094C223.719 26.6094 224.177 26.388 224.5 25.9453C224.823 25.5026 224.99 24.8333 225 23.9375V23.6953Z" fill="white"/>
<path d="M228.141 23.6953C228.141 22.8672 228.305 22.1224 228.633 21.4609C228.961 20.7943 229.422 20.2839 230.016 19.9297C230.609 19.5703 231.292 19.3906 232.062 19.3906C233.203 19.3906 234.128 19.7578 234.836 20.4922C235.549 21.2266 235.935 22.2005 235.992 23.4141L236 23.8594C236 24.6927 235.839 25.4375 235.516 26.0938C235.198 26.75 234.74 27.2578 234.141 27.6172C233.547 27.9766 232.859 28.1562 232.078 28.1562C230.885 28.1562 229.93 27.7604 229.211 26.9688C228.497 26.1719 228.141 25.112 228.141 23.7891V23.6953ZM230.039 23.8594C230.039 24.7292 230.219 25.4115 230.578 25.9062C230.938 26.3958 231.438 26.6406 232.078 26.6406C232.719 26.6406 233.216 26.3906 233.57 25.8906C233.93 25.3906 234.109 24.6589 234.109 23.6953C234.109 22.8411 233.924 22.1641 233.555 21.6641C233.19 21.1641 232.693 20.9141 232.062 20.9141C231.443 20.9141 230.951 21.1615 230.586 21.6562C230.221 22.1458 230.039 22.8802 230.039 23.8594Z" fill="white"/>
<path d="M237.25 23.6953C237.25 22.8672 237.414 22.1224 237.742 21.4609C238.07 20.7943 238.531 20.2839 239.125 19.9297C239.719 19.5703 240.401 19.3906 241.172 19.3906C242.312 19.3906 243.237 19.7578 243.945 20.4922C244.659 21.2266 245.044 22.2005 245.102 23.4141L245.109 23.8594C245.109 24.6927 244.948 25.4375 244.625 26.0938C244.307 26.75 243.849 27.2578 243.25 27.6172C242.656 27.9766 241.969 28.1562 241.188 28.1562C239.995 28.1562 239.039 27.7604 238.32 26.9688C237.607 26.1719 237.25 25.112 237.25 23.7891V23.6953ZM239.148 23.8594C239.148 24.7292 239.328 25.4115 239.688 25.9062C240.047 26.3958 240.547 26.6406 241.188 26.6406C241.828 26.6406 242.326 26.3906 242.68 25.8906C243.039 25.3906 243.219 24.6589 243.219 23.6953C243.219 22.8411 243.034 22.1641 242.664 21.6641C242.299 21.1641 241.802 20.9141 241.172 20.9141C240.552 20.9141 240.06 21.1615 239.695 21.6562C239.331 22.1458 239.148 22.8802 239.148 23.8594Z" fill="white"/>
<path d="M249.461 24.375L248.617 25.2422V28H246.719V16H248.617V22.9219L249.211 22.1797L251.547 19.5469H253.828L250.688 23.0703L254.164 28H251.969L249.461 24.375Z" fill="white"/>
</svg>
